<?xml version="1.0" standalone="no"?>
<!DOCTYPE svg PUBLIC "-//W3C//DTD SVG 20010904//EN"
 "http://www.w3.org/TR/2001/REC-SVG-20010904/DTD/svg10.dtd">
<svg version="1.0" xmlns="http://www.w3.org/2000/svg"
 width="200.000000pt" height="200.000000pt" viewBox="0 0 200.000000 200.000000"
 preserveAspectRatio="xMidYMid meet">
<metadata>
Created by potrace 1.14, written by Peter Selinger 2001-2017
</metadata>
<g transform="translate(0.000000,200.000000) scale(0.100000,-0.100000)"
fill="#000000" stroke="none">
<path d="M719 1830 c-106 -33 -177 -104 -233 -234 -25 -60 -31 -87 -34 -177
-3 -80 0 -121 13 -165 22 -76 83 -204 97 -204 12 0 148 101 148 109 0 4 -9 20
-19 37 -47 77 -69 211 -46 284 19 63 58 127 92 150 36 25 38 25 267 25 210 0
234 -2 259 -19 58 -39 107 -159 102 -249 -3 -69 -12 -100 -47 -172 l-29 -60
28 -23 c82 -66 122 -91 131 -79 14 18 48 87 73 148 30 77 38 256 14 340 -42
153 -135 257 -260 293 -79 24 -478 21 -556 -4z"/>
<path d="M925 1153 c-11 -2 -50 -13 -87 -24 -61 -18 -70 -18 -91 -4 -22 14
-27 12 -97 -39 -78 -57 -95 -82 -80 -120 7 -18 3 -31 -16 -57 -40 -57 -67
-146 -70 -236 -3 -102 7 -149 51 -238 85 -176 261 -283 465 -283 151 0 270 46
372 145 76 74 109 129 136 228 35 128 17 264 -51 376 -26 43 -32 61 -26 82 8
30 1 39 -59 85 -21 15 -39 30 -42 34 -3 4 -19 14 -35 22 -26 14 -32 14 -52 0
-16 -10 -29 -12 -41 -6 -52 27 -210 47 -277 35z"/>
</g>
</svg>
